<svg width="11" height="12" xmlns="http://www.w3.org/2000/svg">

 <g>
  <title>background</title>
  <rect fill="none" id="canvas_background" height="14" width="13" y="-1" x="-1"/>
 </g>
 <g>
  <title>Layer 1</title>
  <g id="svg_4"/>
  <g id="svg_7"/>
  <g id="svg_8"/>
  <g id="svg_9"/>
  <g id="svg_10"/>
  <g id="svg_11"/>
  <g id="svg_12"/>
  <g id="svg_13"/>
  <g id="svg_14"/>
  <g id="svg_15"/>
  <g id="svg_16"/>
  <g id="svg_17"/>
  <g id="svg_18"/>
  <g id="svg_19"/>
  <g stroke="null" id="svg_91">
   <g stroke="null" transform="matrix(0.035365863603374646,0,0,0.035365863603374646,-5.1970335953201445,-4.902242199155972) " id="svg_89">
    <title stroke="null" transform="translate(-4.793356895446777,0) translate(2.842170943040401e-14,7.190034866333008) translate(-8.823244094848633,0) translate(-5.8821635246276855,-5.8821635246276855) translate(-6.384138107299805,0) translate(-39.42635726928711,-26.28424072265625) translate(-72.6025161743164,-104.87030029296875) translate(270.7126159667969,0) translate(0,269.7126159667969) ">background</title>
    <rect stroke="null" x="131.80084" y="138.865946" width="336.643" height="338.643" id="svg_87" fill="none"/>
   </g>
   <g stroke="null" transform="matrix(0.035365863603374646,0,0,0.035365863603374646,-5.1970335953201445,-4.902242199155972) " id="svg_90">
    <title stroke="null" transform="translate(-4.793356895446777,0) translate(2.842170943040401e-14,7.190034866333008) translate(-8.823244094848633,0) translate(-5.8821635246276855,-5.8821635246276855) translate(-6.384138107299805,0) translate(-39.42635726928711,-26.28424072265625) translate(-72.6025161743164,-104.87030029296875) translate(270.7126159667969,0) translate(0,269.7126159667969) ">Layer 1</title>
    <g stroke="null" id="svg_85">
     <path stroke="null" d="m289.519919,464.250295c5.852188,12.110502 15.354563,12.104559 21.194864,-0.011887c25.060002,-51.985216 86.075101,-178.715587 87.973,-183.988301l0.320939,-0.87763c3.800752,-10.855471 5.971054,-22.474659 5.971054,-34.638651c0.000991,-57.904762 -46.94132,-104.867874 -104.848063,-104.867874c-57.91962,0 -104.867874,46.954197 -104.867874,104.867874c0,8.574227 1.145079,16.860204 3.083592,24.839109l0.10698,0.442777c2.683408,10.775236 65.550841,141.427207 91.065507,194.234582l0.000001,0.000001zm10.616748,-278.658431c32.657545,0 59.127104,26.498286 59.127104,59.147906c0,32.669431 -26.475503,59.140972 -59.127104,59.140972c-32.672403,0 -59.146915,-26.477484 -59.146915,-59.140972c0.005943,-32.64962 26.474512,-59.147906 59.146915,-59.147906z" id="svg_86" fill="#48a1f9"/>
    </g>
    <g stroke="null" id="svg_84"/>
    <g stroke="null" id="svg_83"/>
    <g stroke="null" id="svg_82"/>
    <g stroke="null" id="svg_81"/>
    <g stroke="null" id="svg_80"/>
    <g stroke="null" id="svg_79"/>
    <g stroke="null" id="svg_78"/>
    <g stroke="null" id="svg_77"/>
    <g stroke="null" id="svg_76"/>
    <g stroke="null" id="svg_75"/>
    <g stroke="null" id="svg_74"/>
    <g stroke="null" id="svg_73"/>
    <g stroke="null" id="svg_72"/>
    <g stroke="null" id="svg_71"/>
   </g>
  </g>
 </g>
</svg>