<svg width="10" height="10" xmlns="http://www.w3.org/2000/svg">

 <g>
  <title>background</title>
  <rect fill="none" id="canvas_background" height="12" width="12" y="-1" x="-1"/>
 </g>
 <g>
  <title>Layer 1</title>
  <g id="svg_4"/>
  <g id="svg_7"/>
  <g id="svg_8"/>
  <g id="svg_9"/>
  <g id="svg_10"/>
  <g id="svg_11"/>
  <g id="svg_12"/>
  <g id="svg_13"/>
  <g id="svg_14"/>
  <g id="svg_15"/>
  <g id="svg_16"/>
  <g id="svg_17"/>
  <g id="svg_18"/>
  <g id="svg_19"/>
  <g stroke="null" id="svg_25">
   <path stroke="null" fill="#48a1f9" id="svg_24" d="m9.764869,7.871019l-0.047063,-0.141803c-0.111465,-0.331303 -0.476831,-0.676834 -0.812454,-0.767868l-1.242223,-0.339348c-0.336871,-0.091649 -0.817408,0.031587 -1.063879,0.278038l-0.449565,0.449584c-1.633885,-0.441519 -2.915105,-1.722759 -3.35601,-3.356327l0.449584,-0.449584c0.246471,-0.246471 0.369686,-0.726374 0.278038,-1.063245l-0.338734,-1.242837c-0.091649,-0.336257 -0.437814,-0.701604 -0.768483,-0.81184l-0.141803,-0.047677c-0.331303,-0.110236 -0.803795,0.001248 -1.050246,0.247699l-0.672514,0.673128c-0.120144,0.11951 -0.196931,0.461335 -0.196931,0.462584c-0.023522,2.135169 0.813703,4.192303 2.324035,5.702655c1.506627,1.506627 3.556033,2.342622 5.685019,2.324669c0.011156,0 0.36289,-0.075558 0.483014,-0.195068l0.672514,-0.672514c0.246451,-0.246451 0.357916,-0.718943 0.247699,-1.050246z"/>
  </g>
 </g>
</svg>