<svg width="50.5" height="50.5" xmlns="http://www.w3.org/2000/svg">
 <g>
  <title>Layer 1</title>
  <g id="svg_1">
   <path fill="#ffffff" d="m111.5,194.25c61.856,0 112,50.145 112,112s-50.144,112 -112,112s-112,-50.145 -112,-112l-0.5,-16c0,-123.712 100.288,-224 224,-224l0,64c-42.737,0 -82.917,16.643 -113.137,46.863c-5.817,5.818 -11.126,12.008 -15.915,18.51c5.719,-0.9 11.58,-1.373 17.552,-1.373zm288,0c61.855,0 112,50.145 112,112s-50.145,112 -112,112s-112,-50.145 -112,-112l-0.5,-16c0,-123.712 100.287,-224 224,-224l0,64c-42.736,0 -82.918,16.643 -113.137,46.863c-5.818,5.818 -11.127,12.008 -15.916,18.51c5.719,-0.9 11.58,-1.373 17.553,-1.373z" id="svg_2"/>
  </g>
  <g id="svg_3"/>
  <g id="svg_4"/>
  <g id="svg_5"/>
  <g id="svg_6"/>
  <g id="svg_7"/>
  <g id="svg_8"/>
  <g id="svg_9"/>
  <g id="svg_10"/>
  <g id="svg_11"/>
  <g id="svg_12"/>
  <g id="svg_13"/>
  <g id="svg_14"/>
  <g id="svg_15"/>
  <g id="svg_16"/>
  <g id="svg_17"/>
 </g>

</svg>